<svg xmlns="http://www.w3.org/2000/svg">
<symbol id="arrow-up" viewBox="0 0 490.4 490.4"><path d="M185 216.2l48-48v183.4c0 6.8 5.5 12.3 12.3 12.3 6.8 0 12.3-5.5 12.3-12.3V168.3l48 48c2.4 2.4 5.5 3.6 8.7 3.6s6.3-1.2 8.7-3.6c4.8-4.8 4.8-12.5 0-17.3l-68.9-68.9c-4.8-4.8-12.5-4.8-17.3 0L167.9 199c-4.8 4.8-4.8 12.5 0 17.3 4.5 4.7 12.3 4.7 17.1-.1z"/></symbol>
<symbol id="faq-icon" viewBox="0 0 50 38"><path clip-path="url(#SVGID_2_)" d="M44.07 0H5.93A5.937 5.937 0 000 5.93v21.14C0 30.34 2.66 33 5.93 33H12v4a1 1 0 001 1c.694 0 10.442-5 10.442-5H44.07c3.27 0 5.93-2.66 5.93-5.93V5.93C50 2.661 47.34 0 44.07 0M12 10.015h14a1 1 0 110 2H12a1 1 0 110-2m27 14H12a1 1 0 110-2h27a1 1 0 110 2m0-6H12a1 1 0 110-2h27a1 1 0 110 2"/></symbol>
<symbol id="hamburger-icon" viewBox="0 0 32 32"><path d="M4 10h24a2 2 0 000-4H4a2 2 0 000 4zm24 4H4a2 2 0 000 4h24a2 2 0 000-4zm0 8H4a2 2 0 000 4h24a2 2 0 000-4z"/></symbol>
</svg>