<svg xmlns="http://www.w3.org/2000/svg">
<symbol id="arrow-up" viewBox="0 0 490.4 490.4"><path d="M185 216.2l48-48v183.4c0 6.8 5.5 12.3 12.3 12.3 6.8 0 12.3-5.5 12.3-12.3V168.3l48 48c2.4 2.4 5.5 3.6 8.7 3.6s6.3-1.2 8.7-3.6c4.8-4.8 4.8-12.5 0-17.3l-68.9-68.9c-4.8-4.8-12.5-4.8-17.3 0L167.9 199c-4.8 4.8-4.8 12.5 0 17.3 4.5 4.7 12.3 4.7 17.1-.1z"/></symbol>
<symbol id="facebook" viewBox="0 0 512 512"><path d="M384 176h-96v-64c0-17.664 14.336-32 32-32h32V0h-64c-53.024 0-96 42.976-96 96v80h-64v80h64v256h96V256h64l32-80z"/></symbol>
<symbol id="faq-icon" viewBox="0 0 50 38"><path clip-path="url(#SVGID_2_)" d="M44.07 0H5.93A5.937 5.937 0 000 5.93v21.14C0 30.34 2.66 33 5.93 33H12v4a1 1 0 001 1c.694 0 10.442-5 10.442-5H44.07c3.27 0 5.93-2.66 5.93-5.93V5.93C50 2.661 47.34 0 44.07 0M12 10.015h14a1 1 0 110 2H12a1 1 0 110-2m27 14H12a1 1 0 110-2h27a1 1 0 110 2m0-6H12a1 1 0 110-2h27a1 1 0 110 2"/></symbol>
<symbol id="hamburger-icon" viewBox="0 0 32 32"><path d="M4 10h24a2 2 0 000-4H4a2 2 0 000 4zm24 4H4a2 2 0 000 4h24a2 2 0 000-4zm0 8H4a2 2 0 000 4h24a2 2 0 000-4z"/></symbol>
<symbol id="instagram" viewBox="0 0 512 512"><path d="M352 0H160C71.648 0 0 71.648 0 160v192c0 88.352 71.648 160 160 160h192c88.352 0 160-71.648 160-160V160C512 71.648 440.352 0 352 0zm112 352c0 61.76-50.24 112-112 112H160c-61.76 0-112-50.24-112-112V160C48 98.24 98.24 48 160 48h192c61.76 0 112 50.24 112 112v192z"/><path d="M256 128c-70.688 0-128 57.312-128 128s57.312 128 128 128 128-57.312 128-128-57.312-128-128-128zm0 208c-44.096 0-80-35.904-80-80 0-44.128 35.904-80 80-80s80 35.872 80 80c0 44.096-35.904 80-80 80z"/><circle cx="393.6" cy="118.4" r="17.056"/></symbol>
<symbol id="linkedin" viewBox="0 0 512 512"><path d="M0 160h114.496v352H0zM426.368 164.128c-1.216-.384-2.368-.8-3.648-1.152a74.218 74.218 0 00-4.64-.896c-6.08-1.216-12.736-2.08-20.544-2.08-66.752 0-109.088 48.544-123.04 67.296V160H160v352h114.496V320s86.528-120.512 123.04-32v224H512V274.464c0-53.184-36.448-97.504-85.632-110.336z"/><circle cx="56" cy="56" r="56"/></symbol>
<symbol id="twitter" viewBox="0 0 512 512"><path d="M512 97.248c-19.04 8.352-39.328 13.888-60.48 16.576 21.76-12.992 38.368-33.408 46.176-58.016-20.288 12.096-42.688 20.64-66.56 25.408C411.872 60.704 384.416 48 354.464 48c-58.112 0-104.896 47.168-104.896 104.992 0 8.32.704 16.32 2.432 23.936-87.264-4.256-164.48-46.08-216.352-109.792-9.056 15.712-14.368 33.696-14.368 53.056 0 36.352 18.72 68.576 46.624 87.232-16.864-.32-33.408-5.216-47.424-12.928v1.152c0 51.008 36.384 93.376 84.096 103.136-8.544 2.336-17.856 3.456-27.52 3.456-6.72 0-13.504-.384-19.872-1.792 13.6 41.568 52.192 72.128 98.08 73.12-35.712 27.936-81.056 44.768-130.144 44.768-8.608 0-16.864-.384-25.12-1.44C46.496 446.88 101.6 464 161.024 464c193.152 0 298.752-160 298.752-298.688 0-4.64-.16-9.12-.384-13.568 20.832-14.784 38.336-33.248 52.608-54.496z"/></symbol>
</svg>